# xmcd
#
# Track frame offsets: 
#        187
#        16565
#        29265
#        45087
#        60855
#        80152
#        93822
#        112760
#        125902
#
# Disc length: 1828 seconds
#
# Revision: 2
# Processed by: cddbd v1.5.2PL0 Copyright (c) Steve Scherf et al.
# Submitted via: ExactAudioCopy v0.99pb5
#
DISCID=59072209
DTITLE=Variety - RCA Award Winners
DYEAR=1993
DGENRE=Country
TTITLE0=Alabama - The Closer You Get
TTITLE1=Clint Black - Killin' Time
TTITLE2=Keith Whitley and Lorrie Morgan - 'till A Tear Becomes A Rose
TTITLE3=The Judds - Why Not Me
TTITLE4=Ronnie Milsap - Lost In The Fifties Tonight ( In The Still Of 
TTITLE4=The Night)
TTITLE5=Restless Heart - Til I Loved You
TTITLE6=K.T. Oslin - 80's Ladies
TTITLE7=Dolly Parton - I Will Always Love You
TTITLE8=Eddy Arnold - Turn The World Around
EXTD=
EXTT0=
EXTT1=
EXTT2=
EXTT3=
EXTT4=
EXTT5=
EXTT6=
EXTT7=
EXTT8=
PLAYORDER=
